<svg xmlns="http://www.w3.org/2000/svg" viewBox="0 0 120 100">
  <defs>
    <radialGradient id="bodyGrad" cx="45%" cy="40%" r="50%">
      <stop offset="0%" stop-color="#f0d0a0"/>
      <stop offset="40%" stop-color="#d4a574"/>
      <stop offset="80%" stop-color="#b8864a"/>
      <stop offset="100%" stop-color="#9c7040"/>
    </radialGradient>
    <radialGradient id="bellyGrad" cx="50%" cy="45%" r="45%">
      <stop offset="0%" stop-color="#faf5ee"/>
      <stop offset="100%" stop-color="#e8d5b8"/>
    </radialGradient>
    <radialGradient id="cheekGrad" cx="50%" cy="50%" r="50%">
      <stop offset="0%" stop-color="rgba(255,150,150,0.6)"/>
      <stop offset="100%" stop-color="rgba(255,150,150,0)"/>
    </radialGradient>
    <radialGradient id="earInner" cx="50%" cy="50%" r="50%">
      <stop offset="0%" stop-color="#f8bbd0"/>
      <stop offset="100%" stop-color="#e091a8"/>
    </radialGradient>
  </defs>
  <ellipse cx="60" cy="88" rx="35" ry="8" fill="rgba(0,0,0,0.1)"/>
  <ellipse cx="58" cy="82" rx="5" ry="4" fill="#c4956a" transform="rotate(-15,58,82)"/>
  <ellipse cx="60" cy="50" rx="40" ry="30" fill="url(#bodyGrad)"/>
  <ellipse cx="60" cy="32" rx="18" ry="6" fill="rgba(140,100,60,0.25)"/>
  <ellipse cx="60" cy="55" rx="24" ry="20" fill="url(#bellyGrad)"/>
  <ellipse cx="30" cy="22" rx="12" ry="14" fill="#c4956a" transform="rotate(-15,30,22)"/>
  <ellipse cx="30" cy="22" rx="7" ry="9" fill="url(#earInner)" transform="rotate(-15,30,22)"/>
  <ellipse cx="90" cy="22" rx="12" ry="14" fill="#c4956a" transform="rotate(15,90,22)"/>
  <ellipse cx="90" cy="22" rx="7" ry="9" fill="url(#earInner)" transform="rotate(15,90,22)"/>
  <circle cx="35" cy="52" r="12" fill="url(#cheekGrad)"/>
  <circle cx="85" cy="52" r="12" fill="url(#cheekGrad)"/>
  <!-- Closed eyes -->
  <path d="M43 42 Q47 45 51 42" stroke="#555" stroke-width="2" fill="none" stroke-linecap="round"/>
  <path d="M69 42 Q73 45 77 42" stroke="#555" stroke-width="2" fill="none" stroke-linecap="round"/>
  <ellipse cx="60" cy="50" rx="3.5" ry="2.5" fill="#e8888a"/>
  <g stroke="rgba(120,100,80,0.35)" stroke-width="0.7" fill="none">
    <line x1="50" y1="52" x2="20" y2="48"/>
    <line x1="50" y1="54" x2="18" y2="54"/>
    <line x1="70" y1="52" x2="100" y2="48"/>
    <line x1="70" y1="54" x2="102" y2="54"/>
  </g>
  <!-- Zzz -->
  <text x="88" y="18" font-size="14" fill="#888" font-family="sans-serif" font-weight="bold">z</text>
  <text x="98" y="10" font-size="10" fill="#aaa" font-family="sans-serif" font-weight="bold">z</text>
  <text x="105" y="4" font-size="7" fill="#ccc" font-family="sans-serif" font-weight="bold">z</text>
</svg>
